#N canvas 32 32 1379 747 12;
#X obj 72 74 key;
#X obj 373 192 s mawstart;
#X obj 373 165 bng 15 250 50 0 empty empty empty 17 7 0 10 #fcfcfc
#000000 #000000;
#X obj 74 212 spigot;
#X obj 112 104 + 1;
#X obj 111 137 % 2;
#X obj 112 184 tgl 15 0 empty empty empty 17 7 0 10 #fcfcfc #000000
#000000 0 1;
#X obj 114 70 r keyboardDisable;
#X obj 158 102 loadbang;
#X obj 160 136 1;
#X floatatom 31 117 5 0 0 0 - - - 0;
#X obj 524 159 bng 15 250 50 0 empty empty empty 17 7 0 10 #fcfcfc
#000000 #000000;
#X obj 564 159 bng 15 250 50 0 empty empty empty 17 7 0 10 #fcfcfc
#000000 #000000;
#X obj 532 197 1;
#X obj 609 199 2;
#X obj 605 158 bng 15 250 50 0 empty empty empty 17 7 0 10 #fcfcfc
#000000 #000000;
#X obj 645 159 bng 15 250 50 0 empty empty empty 17 7 0 10 #fcfcfc
#000000 #000000;
#X obj 686 159 bng 15 250 50 0 empty empty empty 17 7 0 10 #fcfcfc
#000000 #000000;
#X obj 727 161 bng 15 250 50 0 empty empty empty 17 7 0 10 #fcfcfc
#000000 #000000;
#X obj 709 203 3;
#X obj 769 161 bng 15 250 50 0 empty empty empty 17 7 0 10 #fcfcfc
#000000 #000000;
#X obj 810 162 bng 15 250 50 0 empty empty empty 17 7 0 10 #fcfcfc
#000000 #000000;
#X obj 793 200 4;
#X obj 373 110 select 32, f 6;
#X floatatom 832 244 5 0 0 0 - - - 0;
#X obj 852 162 bng 15 250 50 0 empty empty empty 17 7 0 10 #fcfcfc
#000000 #000000;
#X obj 893 163 bng 15 250 50 0 empty empty empty 17 7 0 10 #fcfcfc
#000000 #000000;
#X obj 872 200 5;
#X obj 933 161 bng 15 250 50 0 empty empty empty 17 7 0 10 #fcfcfc
#000000 #000000;
#X obj 974 162 bng 15 250 50 0 empty empty empty 17 7 0 10 #fcfcfc
#000000 #000000;
#X obj 1015 160 bng 15 250 50 0 empty empty empty 17 7 0 10 #fcfcfc
#000000 #000000;
#X obj 1056 161 bng 15 250 50 0 empty empty empty 17 7 0 10 #fcfcfc
#000000 #000000;
#X obj 1097 159 bng 15 250 50 0 empty empty empty 17 7 0 10 #fcfcfc
#000000 #000000;
#X obj 1138 160 bng 15 250 50 0 empty empty empty 17 7 0 10 #fcfcfc
#000000 #000000;
#X obj 1179 161 bng 15 250 50 0 empty empty empty 17 7 0 10 #fcfcfc
#000000 #000000;
#X obj 1220 162 bng 15 250 50 0 empty empty empty 17 7 0 10 #fcfcfc
#000000 #000000;
#X obj 957 197 6;
#X obj 1036 195 7;
#X obj 1119 192 8;
#X obj 1189 195 9;
#X obj 523 110 select 38 49 233 50 34 51 39 52 40 53 45 54 232 55 95
56 231 57, f 106;
#X text 57 34 Acquisition de la touche;
#X text 376 36 Espace;
#X obj 64 504 bng 15 250 50 0 empty empty empty 17 7 0 10 #fcfcfc #000000
#000000;
#X obj 64 449 select 115 83, f 6;
#X obj 264 448 select 114 82, f 6;
#X obj 263 497 bng 15 250 50 0 empty empty empty 17 7 0 10 #fcfcfc
#000000 #000000;
#X obj 263 544 s UIrecallpreset;
#X obj 64 543 s UIsavepreset;
#X text 519 34 numéros du clavier (PAS le numpad) avec et sans MAJ
activé;
#X text 65 371 S et s;
#X text 263 371 R et r;
#X text 440 373 C et c;
#X obj 439 496 bng 15 250 50 0 empty empty empty 17 7 0 10 #fcfcfc
#000000 #000000;
#X obj 74 249 s \$0-key;
#X obj 373 80 r \$0-key;
#X obj 523 72 r \$0-key;
#X obj 440 417 r \$0-key;
#X obj 264 418 r \$0-key;
#X obj 64 420 r \$0-key;
#X obj 440 446 select 99 67, f 6;
#X obj 440 543 s UImawreset;
#X text 64 394 sauvegarder preset;
#X text 263 391 recall preset;
#X text 440 395 clear wavearray;
#X text 376 55 WOOSH;
#X text 518 51 select preset;
#X obj 593 495 bng 15 250 50 0 empty empty empty 17 7 0 10 #fcfcfc
#000000 #000000;
#X obj 594 416 r \$0-key;
#X text 595 372 N et n;
#X text 595 394 noise wavearray;
#X obj 594 445 select 110 78, f 6;
#X obj 594 542 s UImawNoise;
#X obj 832 274 s UImawSelectPreset;
#X connect 0 0 3 0;
#X connect 0 0 10 0;
#X connect 2 0 1 0;
#X connect 3 0 54 0;
#X connect 4 0 5 0;
#X connect 5 0 6 0;
#X connect 6 0 3 1;
#X connect 7 0 4 0;
#X connect 8 0 9 0;
#X connect 9 0 6 0;
#X connect 11 0 13 0;
#X connect 12 0 13 0;
#X connect 13 0 24 0;
#X connect 14 0 24 0;
#X connect 15 0 14 0;
#X connect 16 0 14 0;
#X connect 17 0 19 0;
#X connect 18 0 19 0;
#X connect 19 0 24 0;
#X connect 20 0 22 0;
#X connect 21 0 22 0;
#X connect 22 0 24 0;
#X connect 23 0 2 0;
#X connect 24 0 73 0;
#X connect 25 0 27 0;
#X connect 26 0 27 0;
#X connect 27 0 24 0;
#X connect 28 0 36 0;
#X connect 29 0 36 0;
#X connect 30 0 37 0;
#X connect 31 0 37 0;
#X connect 32 0 38 0;
#X connect 33 0 38 0;
#X connect 34 0 39 0;
#X connect 35 0 39 0;
#X connect 36 0 24 0;
#X connect 37 0 24 0;
#X connect 38 0 24 0;
#X connect 39 0 24 0;
#X connect 40 0 11 0;
#X connect 40 1 12 0;
#X connect 40 2 15 0;
#X connect 40 3 16 0;
#X connect 40 4 17 0;
#X connect 40 5 18 0;
#X connect 40 6 20 0;
#X connect 40 7 21 0;
#X connect 40 8 25 0;
#X connect 40 9 26 0;
#X connect 40 10 28 0;
#X connect 40 11 29 0;
#X connect 40 12 30 0;
#X connect 40 13 31 0;
#X connect 40 14 32 0;
#X connect 40 15 33 0;
#X connect 40 16 34 0;
#X connect 40 17 35 0;
#X connect 43 0 48 0;
#X connect 44 0 43 0;
#X connect 44 1 43 0;
#X connect 45 0 46 0;
#X connect 45 1 46 0;
#X connect 46 0 47 0;
#X connect 53 0 61 0;
#X connect 55 0 23 0;
#X connect 56 0 40 0;
#X connect 57 0 60 0;
#X connect 58 0 45 0;
#X connect 59 0 44 0;
#X connect 60 0 53 0;
#X connect 60 1 53 0;
#X connect 67 0 72 0;
#X connect 68 0 71 0;
#X connect 71 0 67 0;
#X connect 71 1 67 0;
