#N canvas 292 18 1540 839 12;
#X obj 151 180 noise~;
#X obj 150 236 lop~ 50;
#X obj 151 293 hip~ 40;
#X floatatom 434 231 5 0 1 0 - - - 0;
#X obj 257 428 *~;
#X obj 337 464 bob~, f 14;
#X floatatom 448 426 11 0 0 0 - - - 0;
#X obj 267 535 +~;
#X obj 314 516 *~;
#X obj 459 392 + 400;
#X floatatom 562 373 5 0 0 0 - - - 0;
#X obj 434 280 * 1000;
#X obj 449 338 * 1;
#X obj 273 622 +~;
#X obj 736 626 *~;
#X obj 576 703 *~;
#X obj 729 658 send~ delayFeedback;
#X obj 343 542 receive~ delayFeedback;
#X obj 321 572 delwrite~ delayBuffer 5000;
#X obj 609 568 delread~ delayBuffer 500;
#X obj 838 515 r count;
#X floatatom 615 523 5 0 0 0 - - - 0;
#X obj 527 323 *;
#X obj 525 287 + 1;
#X floatatom 578 154 5 0 0 0 - - - 0;
#X obj 578 180 s count;
#X obj 565 132 1;
#X obj 616 106 loadbang;
#X obj 394 69 r mawstart;
#X obj 776 410 r bobtoggle;
#X obj 697 301 r bobfreqbase;
#X obj 704 226 r bobfreqmult;
#X obj 805 464 r delaytime;
#X obj 863 582 r delayfeedback;
#X obj 896 683 r delaywet;
#X obj 253 763 outlet~;
#X obj 249 249 r mawLC;
#X obj 249 179 r mawHC;
#N canvas 602 319 941 357 del_time 1;
#X floatatom 44 38 5 0 0 0 - - - 0;
#X obj 50 82 -40;
#X obj 86 103 *;
#X obj 30 125 + 40;
#X floatatom 114 59 5 0 0 0 - - - 0;
#X floatatom 31 166 5 0 0 0 - - - 0;
#X obj 76 17 bng 15 250 50 0 empty empty empty 17 7 0 10 #fcfcfc #000000
#000000;
#X obj 143 6 inlet;
#X obj 90 160 outlet;
#X obj 23 9 inlet;
#X text 235 60 Ce sous patch permet de ne pas prendre en compte dans
la multiplication Délai du Delay * Vitesse de lecture du Woosh les
40 ms minimales nécessaires au bon fonctionnement du delay;
#X connect 0 0 1 0;
#X connect 1 0 2 0;
#X connect 2 0 3 0;
#X connect 3 0 5 0;
#X connect 3 0 8 0;
#X connect 4 0 2 1;
#X connect 6 0 0 0;
#X connect 7 0 6 0;
#X connect 7 0 4 0;
#X connect 9 0 0 0;
#X restore 699 516 pd del_time;
#X text 896 513 le delai du delay est proportionnel a la vitesse de
lecture du woosh;
#X text 808 209 Ce paramètre contrôle à quel point la fréquence
du filtre "bob" est multipliée par l'intensité du woosh (minimum
x1);
#X text 870 407 Toggle ON/OFF du filtre "bob";
#X text 906 462 délai du delay;
#X text 981 583 feedback du delay;
#X text 984 684 mix du delay au son dry;
#X text 801 302 fréquence de base du filtre "bob";
#X text 57 235 coupe haut;
#X text 59 292 coupe bas;
#X text 42 153 générateur de bruit;
#X text 688 49 vitesse de lecture de l'enveloppe d'intensité (intensité
ici = amplitude et fréquence du filtre résonnant), f 42;
#X text 347 34 déclenchement du playback;
#X obj 434 183 playbackEngine;
#X obj 268 718 *~;
#X obj 201 675 1;
#X obj 201 631 loadbang;
#X obj 102 633 r mawVolume;
#X obj 344 764 s~ VUMeter;
#X obj 610 65 r mawTime;
#X connect 0 0 1 0;
#X connect 1 0 2 0;
#X connect 2 0 4 0;
#X connect 3 0 4 1;
#X connect 3 0 11 0;
#X connect 3 0 23 0;
#X connect 4 0 7 0;
#X connect 4 0 5 0;
#X connect 5 0 8 0;
#X connect 6 0 5 1;
#X connect 7 0 13 0;
#X connect 7 0 18 0;
#X connect 8 0 7 1;
#X connect 9 0 6 0;
#X connect 10 0 9 1;
#X connect 11 0 12 0;
#X connect 12 0 9 0;
#X connect 13 0 52 0;
#X connect 14 0 16 0;
#X connect 15 0 13 1;
#X connect 17 0 18 0;
#X connect 19 0 14 0;
#X connect 19 0 15 0;
#X connect 20 0 38 1;
#X connect 22 0 12 1;
#X connect 23 0 22 0;
#X connect 24 0 25 0;
#X connect 26 0 24 0;
#X connect 26 0 51 1;
#X connect 27 0 26 0;
#X connect 28 0 51 0;
#X connect 29 0 8 1;
#X connect 30 0 10 0;
#X connect 31 0 22 1;
#X connect 32 0 38 0;
#X connect 33 0 14 1;
#X connect 34 0 15 1;
#X connect 36 0 2 1;
#X connect 37 0 1 1;
#X connect 38 0 21 0;
#X connect 38 0 19 0;
#X connect 51 0 3 0;
#X connect 52 0 35 0;
#X connect 52 0 56 0;
#X connect 53 0 52 1;
#X connect 54 0 53 0;
#X connect 55 0 53 0;
#X connect 57 0 26 0;
