#N canvas 160 160 450 300 12;
#X msg 33 266 \; wavearray const 0;
#X obj 169 0 loadbang;
#X obj 34 41 9;
#X obj 30 164 int;
#X obj 30 188 s numpreset;
#X obj 33 244 r mawreset;
#X text 166 154 pour que le slider de selection de preset ne donne
que des entiers, f 26;
#X msg 197 268 \; wavearray const 1;
#X obj 161 40 50;
#X obj 229 39 40;
#X text 368 259 Interface "Clear" et "Noise";
#X obj 197 242 r mawNoise;
#X obj 286 45 1;
#X obj 37 394 env~;
#X obj 37 435 log;
#X obj 98 406 10;
#X obj 98 376 loadbang;
#X floatatom 37 465 5 0 0 0 - - - 0;
#X obj 73 378 bng 15 250 50 0 empty empty empty 17 7 0 10 #fcfcfc #000000
#000000;
#X text 178 390 Parce que les "VU meter" fonctionnent vraiment mal
dans pd (et même ici ça ne marche pas vraiment... au moins on voit
quand il y a du signal;
#X obj 40 488 s logVUMeter;
#X obj 36 351 r~ VUMeter;
#X text 467 9 Initialisation de l'UI : Select Preset \, High Cut \,
Low Cut \, Volume \, activer le contrôle par clavier, f 25;
#X obj 387 51 0;
#X obj 389 75 s UIKeyboardDisable;
#X obj 291 74 s UImawVolume;
#X obj 161 73 s UImawHC;
#X obj 229 101 s UImawLC;
#X obj 34 96 s UImawSelectPreset;
#X obj 30 140 r mawSelectPreset;
#X connect 1 0 2 0;
#X connect 1 0 8 0;
#X connect 1 0 9 0;
#X connect 1 0 12 0;
#X connect 1 0 23 0;
#X connect 2 0 28 0;
#X connect 3 0 4 0;
#X connect 5 0 0 0;
#X connect 8 0 26 0;
#X connect 9 0 27 0;
#X connect 11 0 7 0;
#X connect 12 0 25 0;
#X connect 13 0 14 0;
#X connect 14 0 17 0;
#X connect 15 0 14 1;
#X connect 16 0 15 0;
#X connect 17 0 20 0;
#X connect 18 0 15 0;
#X connect 21 0 13 0;
#X connect 23 0 24 0;
#X connect 29 0 3 0;
