#N canvas 466 84 1058 704 12;
#X listbox 86 405 7 0 0 0 - - - 0;
#X obj 169 219 + 1;
#X floatatom 175 313 5 0 0 0 - - - 0;
#X obj 256 195 f;
#X obj 257 134 metro 2;
#X obj 168 174 % 500;
#X floatatom 488 86 5 0 0 0 - - - 0;
#X obj 186 109 bng 15 250 50 0 empty empty empty 17 7 0 10 #fcfcfc
#000000 #000000;
#X msg 897 235 0;
#X obj 870 181 sel 499;
#X obj 870 211 bng 15 250 50 0 empty empty empty 17 7 0 10 #fcfcfc
#000000 #000000;
#X obj 169 13 inlet;
#X obj 486 49 inlet;
#X obj 81 565 outlet;
#X obj 680 301 array set playback;
#X msg 680 263 1;
#X obj 741 241 r stop;
#X msg 24 78 \; playback const 0;
#X obj 680 226 % 6;
#X msg 826 296 \; playback const 0;
#X obj 826 262 delay 10;
#X text 446 21 vitesse du swoosh;
#X obj 91 375 array get wavearray;
#X obj 166 52 del 1;
#X obj 294 514 tabwrite wavearray;
#X obj 414 429 + 1;
#X msg 273 45 \; wavearray normalize;
#X obj 257 97 r stopPlayback;
#X obj 169 527 r stopPlayback;
#X obj 897 267 s stopPlayback;
#X text 718 135 Cette partie du sous patch gère la barre de playback
, f 27;
#X text 19 3 inlet pour bang à travers mawstart, f 18;
#X text 55 596 Le send stopPlayback sert à arrêter le métronome
(qui remplace d'ailleurs une fonction line simplement parce que j'avait
oublié que line existait au moment de la construction) \, et sert
aussi à définir la valeur du dernier index de wavearray à 0 à chaque
lecture.;
#X obj 82 443 expr if($f1 > 1 \, 1 \, $f1);
#X obj 82 476 expr if($f1 < 0 \, 0 \, $f1);
#X text 153 406 Lecture de wavearray;
#X text 431 494 Correction en temps réel des valeurs impossibles dans
wavearray entrées par l'utilisateur (les valeurs ne sont pas sensées
sortir du cadre \, c'est à dire être comprises dans l'intervalle
0 \; 1);
#X text 448 428 Ce +1 ne devrait pas exister \, mais si il est absent
\, la valeur n'est pas écrite dans le bon index (bug de pd ?);
#X connect 0 0 33 0;
#X connect 1 0 5 0;
#X connect 2 0 14 1;
#X connect 2 0 18 0;
#X connect 2 0 22 0;
#X connect 2 0 25 0;
#X connect 3 0 1 0;
#X connect 3 0 2 0;
#X connect 3 0 9 0;
#X connect 4 0 3 0;
#X connect 5 0 3 1;
#X connect 7 0 4 0;
#X connect 8 0 29 0;
#X connect 9 0 10 0;
#X connect 10 0 8 0;
#X connect 10 0 20 0;
#X connect 11 0 17 0;
#X connect 11 0 23 0;
#X connect 11 0 26 0;
#X connect 12 0 4 1;
#X connect 12 0 6 0;
#X connect 15 0 14 0;
#X connect 16 0 14 0;
#X connect 18 0 15 0;
#X connect 20 0 19 0;
#X connect 22 0 0 0;
#X connect 23 0 4 0;
#X connect 25 0 24 1;
#X connect 27 0 4 0;
#X connect 28 0 13 0;
#X connect 33 0 34 0;
#X connect 34 0 13 0;
#X connect 34 0 24 0;
