#N canvas 128 128 450 300 12;
#X listbox 85 369 7 0 0 0 - - - 0;
#X obj 78 201 + 1;
#X floatatom 176 216 5 0 0 0 - - - 0;
#X obj 172 182 f;
#X obj 73 160 % 500;
#X obj 141 90 bng 15 250 50 0 empty empty empty 17 7 0 10 #fcfcfc #000000
#000000;
#X msg 795 249 0;
#X obj 218 86 r stop;
#X obj 798 281 s stop;
#X obj 798 197 sel 499;
#X obj 768 225 bng 15 250 50 0 empty empty empty 17 7 0 10 #fcfcfc
#000000 #000000;
#X obj 558 304 array set playback;
#X msg 558 266 1;
#X obj 619 244 r stop;
#X msg 28 113 \; playback const 0;
#X obj 558 229 % 6;
#X msg 715 308 \; playback const 0;
#X obj 716 270 delay 10;
#X obj 170 87 del 1;
#X obj 157 467 tabwrite wavearray;
#X obj 360 276 + 1;
#X obj 172 138 metro 0.1;
#X obj 165 258 r numpreset;
#X obj 90 46 r recallpreset;
#X obj 91 339 array get preset9;
#X floatatom 289 290 5 0 0 0 - - - 0;
#X msg 165 301 symbol preset\$1;
#X text 318 381 le send numpreset se situe dans "pd misc" pour arrondir
la valeur de numcorrection \, qui provient du slider Select Preset
, f 38;
#X text 608 155 Cette partie du sous patch gère la barre de playback
, f 26;
#X text 334 47 Ce sous patch sert à écrire dans l'array du preset
sélectionné le contenu de l'array wavearray;
#X text 27 6 le send savepreset est embed dans le bouton SAVE Preset
, f 28;
#X obj 85 401 expr if($f1 > 1 \, 1 \, $f1);
#X obj 85 428 expr if($f1 < 0 \, 0 \, $f1);
#X connect 0 0 31 0;
#X connect 1 0 4 0;
#X connect 2 0 11 1;
#X connect 2 0 15 0;
#X connect 2 0 20 0;
#X connect 2 0 24 0;
#X connect 3 0 1 0;
#X connect 3 0 2 0;
#X connect 3 0 9 0;
#X connect 4 0 3 1;
#X connect 5 0 21 0;
#X connect 6 0 8 0;
#X connect 7 0 21 0;
#X connect 9 0 10 0;
#X connect 10 0 6 0;
#X connect 10 0 17 0;
#X connect 12 0 11 0;
#X connect 13 0 11 0;
#X connect 15 0 12 0;
#X connect 17 0 16 0;
#X connect 18 0 21 0;
#X connect 20 0 19 1;
#X connect 21 0 3 0;
#X connect 22 0 26 0;
#X connect 22 0 25 0;
#X connect 23 0 14 0;
#X connect 23 0 18 0;
#X connect 24 0 0 0;
#X connect 26 0 24 2;
#X connect 31 0 32 0;
#X connect 32 0 19 0;
